<?xml version="1.0" encoding="UTF-8"?>
<!DOCTYPE svg PUBLIC "-//W3C//DTD SVG 1.1//EN" "http://www.w3.org/Graphics/SVG/1.1/DTD/svg11.dtd">
<!-- Creator: CorelDRAW -->
<svg xmlns="http://www.w3.org/2000/svg" xml:space="preserve" width="851.432mm" height="125.17mm" version="1.1" style="shape-rendering:geometricPrecision; text-rendering:geometricPrecision; image-rendering:optimizeQuality; fill-rule:evenodd; clip-rule:evenodd"
viewBox="0 0 79371.16 11668.41"
 xmlns:xlink="http://www.w3.org/1999/xlink"
 xmlns:xodm="http://www.corel.com/coreldraw/odm/2003">
 <defs>
  <style type="text/css">
   <![CDATA[
    .fil3 {fill:#B32B2D}
    .fil1 {fill:white}
    .fil0 {fill:white;fill-rule:nonzero}
    .fil2 {fill:white}
   ]]>
  </style>
 </defs>
 <g id="Camada_x0020_1">
  <metadata id="CorelCorpID_0Corel-Layer"/>
  <g id="_2249321844176">
   <path class="fil0" d="M26809.39 11668.41l-616.84 -829.31c-182.77,36.55 -360.97,54.83 -534.6,54.83 -452.34,0 -867,-105.1 -1243.96,-315.28 -376.97,-210.18 -676.24,-503.75 -897.85,-880.71 -221.61,-376.96 -332.42,-800.75 -332.42,-1271.37 0,-470.63 110.8,-893.28 332.42,-1267.95 221.6,-374.68 520.88,-667.11 897.85,-877.29 376.96,-210.18 791.61,-315.27 1243.96,-315.27 452.35,0 867.01,105.09 1243.97,315.27 376.96,210.18 673.96,502.61 890.99,877.29 217.04,374.67 325.55,797.32 325.55,1267.95 0,411.22 -83.39,787.04 -250.16,1127.45 -166.78,340.4 -398.67,622.55 -695.66,846.44l1055.48 1267.95 -1418.74 0zm-2426.25 -3241.85c0,424.93 115.37,764.2 346.12,1017.78 230.74,253.59 540.31,380.39 928.68,380.39 383.82,0 691.09,-127.94 921.84,-383.82 230.74,-255.87 346.12,-593.99 346.12,-1014.35 0,-424.94 -115.38,-764.21 -346.12,-1017.79 -230.75,-253.59 -538.02,-380.39 -921.84,-380.39 -388.38,0 -697.94,125.65 -928.68,376.97 -230.75,251.3 -346.12,591.71 -346.12,1021.21z"/>
   <path id="_1" class="fil0" d="M32559.72 7021.54l0 3824.42 -1172 0 0 -520.89c-118.8,169.07 -279.86,305 -483.19,407.8 -203.33,102.8 -428.36,154.21 -675.1,154.21 -292.43,0 -550.59,-65.11 -774.48,-195.33 -223.9,-130.23 -397.52,-318.7 -520.89,-565.44 -123.37,-246.74 -185.05,-536.89 -185.05,-870.43l0 -2234.34 1165.14 0 0 2076.7c0,255.88 66.26,454.64 198.77,596.29 132.5,141.64 310.7,212.47 534.59,212.47 228.47,0 408.94,-70.83 541.45,-212.47 132.5,-141.65 198.76,-340.4 198.76,-596.29l0 -2076.7 1172 0z"/>
   <path id="_2" class="fil0" d="M37007.84 8872.06c0,109.66 -6.86,223.89 -20.56,342.69l-2652.42 0c18.28,237.6 94.81,419.22 229.6,544.88 134.79,125.65 300.42,188.48 496.89,188.48 292.43,0 495.77,-123.37 609.99,-370.11l1247.4 0c-63.97,251.3 -179.35,477.48 -346.12,678.53 -166.77,201.04 -375.82,358.69 -627.12,472.91 -251.3,114.23 -532.31,171.35 -843.01,171.35 -374.67,0 -708.23,-79.96 -1000.66,-239.88 -292.42,-159.92 -520.88,-388.39 -685.38,-685.38 -164.49,-297 -246.74,-644.26 -246.74,-1041.78 0,-397.52 81.1,-744.78 243.32,-1041.78 162.2,-296.99 389.52,-525.46 681.95,-685.38 292.43,-159.92 628.27,-239.88 1007.51,-239.88 370.11,0 699.08,77.68 986.95,233.03 287.86,155.35 512.89,376.96 675.1,664.81 162.2,287.87 243.32,623.7 243.32,1007.51zm-1199.42 -308.42c0,-201.04 -68.55,-360.97 -205.62,-479.76 -137.07,-118.8 -308.42,-178.2 -514.04,-178.2 -196.47,0 -362.11,57.12 -496.89,171.34 -134.8,114.23 -218.18,276.44 -250.17,486.62l1466.72 0z"/>
   <path id="_3" class="fil0" d="M38214.11 6624.02c-205.62,0 -373.54,-60.54 -503.76,-181.62 -130.22,-121.08 -195.33,-270.72 -195.33,-448.92 0,-182.77 65.11,-334.69 195.33,-455.77 130.22,-121.08 298.14,-181.63 503.76,-181.63 201.04,0 366.67,60.55 496.89,181.63 130.23,121.08 195.33,273.01 195.33,455.77 0,178.2 -65.11,327.84 -195.33,448.92 -130.22,121.08 -295.85,181.62 -496.89,181.62zm582.57 397.52l0 3824.42 -1172 0 0 -3824.42 1172 0z"/>
   <path id="_4" class="fil0" d="M40818.55 7658.94c137.07,-210.18 308.42,-375.82 514.03,-496.9 205.62,-121.08 434.07,-181.62 685.39,-181.62l0 1240.54 -322.13 0c-292.42,0 -511.74,62.83 -657.96,188.48 -146.22,125.65 -219.32,346.11 -219.32,661.39l0 1775.13 -1172 0 0 -3824.42 1172 0 0 637.41z"/>
   <path id="_5" class="fil0" d="M44320.83 10900.79c-374.67,0 -711.65,-79.96 -1010.93,-239.88 -299.29,-159.92 -534.59,-388.39 -705.94,-685.38 -171.35,-297 -257.02,-644.26 -257.02,-1041.78 0,-392.95 86.82,-739.06 260.45,-1038.35 173.62,-299.29 411.22,-528.89 712.79,-688.81 301.57,-159.92 639.68,-239.88 1014.36,-239.88 374.67,0 712.79,79.96 1014.35,239.88 301.57,159.92 539.17,389.52 712.8,688.81 173.62,299.29 260.44,645.4 260.44,1038.35 0,392.95 -87.95,739.07 -263.87,1038.35 -175.92,299.29 -415.8,528.89 -719.65,688.81 -303.85,159.92 -643.12,239.88 -1017.79,239.88zm0 -1014.36c223.89,0 414.66,-82.25 572.29,-246.74 157.64,-164.49 236.45,-399.81 236.45,-705.94 0,-306.14 -76.53,-541.44 -229.6,-705.94 -153.07,-164.49 -341.54,-246.74 -565.43,-246.74 -228.47,0 -418.09,81.1 -568.87,243.32 -150.78,162.2 -226.17,398.66 -226.17,709.36 0,306.14 74.25,541.45 222.75,705.94 148.49,164.49 334.69,246.74 558.58,246.74z"/>
   <polygon id="_6" class="fil0" points="48042.44,9879.57 49701.06,9879.57 49701.06,10845.96 46733.37,10845.96 46733.37,9913.84 48323.44,7987.92 46747.07,7987.92 46747.07,7021.54 49666.79,7021.54 49666.79,7953.65 "/>
   <path id="_7" class="fil0" d="M53415.81 10893.94c-315.27,0 -597.42,-55.98 -846.44,-167.92 -249.02,-111.95 -444.36,-267.3 -586,-466.06 -141.65,-198.77 -214.75,-428.37 -219.32,-688.81l664.81 0c22.85,223.89 115.37,412.37 277.58,565.44 162.2,153.06 398.66,229.59 709.36,229.59 297,0 531.17,-74.24 702.51,-222.74 171.35,-148.5 257.02,-339.27 257.02,-572.29 0,-182.77 -50.26,-331.27 -150.78,-445.5 -100.52,-114.22 -226.17,-201.04 -376.96,-260.44 -150.78,-59.4 -354.11,-123.37 -609.99,-191.9 -315.27,-82.25 -567.72,-164.5 -757.34,-246.74 -189.62,-82.25 -351.82,-211.33 -486.61,-387.24 -134.8,-175.92 -202.19,-412.37 -202.19,-709.37 0,-260.44 66.25,-491.19 198.76,-692.23 132.5,-201.05 318.7,-356.4 558.59,-466.06 239.88,-109.66 515.18,-164.5 825.88,-164.5 447.78,0 814.46,111.95 1100.03,335.84 285.57,223.89 446.64,520.89 483.19,890.99l-685.38 0c-22.85,-182.77 -118.8,-343.84 -287.86,-483.19 -169.07,-139.37 -392.95,-209.04 -671.67,-209.04 -260.45,0 -472.91,67.39 -637.41,202.19 -164.49,134.79 -246.74,323.27 -246.74,565.43 0,173.63 49.12,315.28 147.35,424.94 98.25,109.66 219.33,193.05 363.25,250.17 143.93,57.12 346.12,122.22 606.56,195.33 315.28,86.81 568.87,172.49 760.77,257.01 191.9,84.53 356.4,214.75 493.47,390.67 137.07,175.92 205.62,414.66 205.62,716.22 0,233.02 -61.68,452.34 -185.05,657.96 -123.37,205.62 -306.14,372.39 -548.31,500.33 -242.17,127.94 -527.74,191.91 -856.73,191.91z"/>
   <path id="_8" class="fil0" d="M59351.2 8824.09c0,118.79 -6.85,244.44 -20.56,376.96l-3001.96 0c22.85,370.11 149.65,659.11 380.39,867 230.74,207.9 510.61,311.85 839.59,311.85 269.58,0 494.61,-62.83 675.1,-188.48 180.48,-125.65 307.28,-293.57 380.39,-503.76l671.67 0c-100.53,360.97 -301.57,654.54 -603.14,880.72 -301.57,226.17 -676.24,339.26 -1124.02,339.26 -356.4,0 -675.1,-79.96 -956.11,-239.88 -281,-159.92 -501.47,-387.24 -661.39,-681.95 -159.92,-294.72 -239.88,-636.26 -239.88,-1024.65 0,-388.39 77.67,-728.79 233.02,-1021.21 155.35,-292.43 373.54,-517.46 654.54,-675.1 281,-157.65 604.28,-236.46 969.81,-236.46 356.39,0 671.66,77.68 945.82,233.03 274.15,155.35 485.48,368.96 633.98,640.83 148.5,271.87 222.75,579.14 222.75,921.84zm-644.26 -130.23c0,-237.59 -52.54,-442.07 -157.64,-613.41 -105.09,-171.35 -247.87,-301.57 -428.36,-390.67 -180.48,-89.1 -380.39,-133.65 -599.71,-133.65 -315.27,0 -583.72,100.53 -805.32,301.57 -221.6,201.05 -348.4,479.77 -380.39,836.16l2371.41 0z"/>
   <path id="_9" class="fil0" d="M60797.35 7700.06c109.66,-214.75 266.15,-381.52 469.49,-500.33 203.33,-118.8 451.21,-178.2 743.64,-178.2l0 644.26 -164.5 0c-699.08,0 -1048.63,379.24 -1048.63,1137.73l0 2042.43 -623.69 0 0 -3755.88 623.69 0 0 609.99z"/>
   <polygon id="_10" class="fil0" points="64128.3,10270.23 65293.44,7090.07 65958.27,7090.07 64484.7,10845.96 63758.19,10845.96 62284.63,7090.07 62956.3,7090.07 "/>
   <path id="_11" class="fil0" d="M66897.24 6480.09c-118.8,0 -219.33,-41.13 -301.57,-123.37 -82.25,-82.25 -123.37,-182.77 -123.37,-301.57 0,-118.8 41.12,-219.32 123.37,-301.57 82.24,-82.25 182.77,-123.37 301.57,-123.37 114.22,0 211.32,41.12 291.28,123.37 79.96,82.25 119.95,182.77 119.95,301.57 0,118.8 -39.98,219.32 -119.95,301.57 -79.96,82.24 -177.05,123.37 -291.28,123.37zm301.56 609.98l0 3755.88 -623.69 0 0 -3755.88 623.69 0z"/>
   <path id="_12" class="fil0" d="M68028.12 8961.16c0,-388.39 77.67,-727.64 233.02,-1017.79 155.35,-290.14 371.25,-515.18 647.69,-675.1 276.44,-159.92 592.85,-239.88 949.25,-239.88 461.49,0 841.88,111.95 1141.15,335.84 299.29,223.89 496.9,534.6 592.86,932.11l-671.67 0c-63.97,-228.46 -188.47,-408.94 -373.53,-541.44 -185.05,-132.5 -414.66,-198.77 -688.81,-198.77 -356.4,0 -644.26,122.23 -863.58,366.68 -219.32,244.45 -328.99,590.56 -328.99,1038.35 0,452.35 109.66,801.89 328.99,1048.63 219.32,246.74 507.18,370.11 863.58,370.11 274.15,0 502.61,-63.97 685.38,-191.9 182.77,-127.94 308.42,-310.7 376.96,-548.31l671.67 0c-100.52,383.81 -301.57,691.09 -603.14,921.83 -301.56,230.75 -678.53,346.12 -1130.87,346.12 -356.4,0 -672.81,-79.96 -949.25,-239.88 -276.44,-159.92 -492.34,-386.09 -647.69,-678.53 -155.35,-292.42 -233.02,-635.11 -233.02,-1028.07z"/>
   <path id="_13" class="fil0" d="M75848.3 8824.09c0,118.79 -6.85,244.44 -20.56,376.96l-3001.96 0c22.85,370.11 149.65,659.11 380.39,867 230.74,207.9 510.61,311.85 839.59,311.85 269.58,0 494.61,-62.83 675.1,-188.48 180.48,-125.65 307.28,-293.57 380.39,-503.76l671.67 0c-100.53,360.97 -301.57,654.54 -603.14,880.72 -301.57,226.17 -676.24,339.26 -1124.02,339.26 -356.4,0 -675.1,-79.96 -956.11,-239.88 -281,-159.92 -501.47,-387.24 -661.39,-681.95 -159.92,-294.72 -239.88,-636.26 -239.88,-1024.65 0,-388.39 77.67,-728.79 233.02,-1021.21 155.35,-292.43 373.54,-517.46 654.54,-675.1 281,-157.65 604.28,-236.46 969.81,-236.46 356.39,0 671.66,77.68 945.82,233.03 274.15,155.35 485.48,368.96 633.98,640.83 148.5,271.87 222.75,579.14 222.75,921.84zm-644.26 -130.23c0,-237.59 -52.54,-442.07 -157.64,-613.41 -105.09,-171.35 -247.87,-301.57 -428.36,-390.67 -180.48,-89.1 -380.39,-133.65 -599.71,-133.65 -315.27,0 -583.72,100.53 -805.32,301.57 -221.6,201.05 -348.4,479.77 -380.39,836.16l2371.41 0z"/>
   <path id="_14" class="fil0" d="M78000.39 10907.64c-287.86,0 -546.02,-49.12 -774.48,-147.35 -228.46,-98.24 -408.94,-235.32 -541.44,-411.23 -132.51,-175.91 -205.62,-378.09 -219.33,-606.56l644.26 0c18.28,187.34 106.23,340.4 263.87,459.21 157.64,118.8 364.4,178.2 620.27,178.2 237.6,0 424.94,-52.55 562.01,-157.64 137.08,-105.1 205.62,-237.6 205.62,-397.52 0,-164.49 -73.11,-286.72 -219.32,-366.67 -146.22,-79.96 -372.39,-158.78 -678.53,-236.46 -278.72,-73.1 -506.04,-147.35 -681.96,-222.74 -175.92,-75.4 -326.69,-187.34 -452.35,-335.84 -125.65,-148.5 -188.47,-343.84 -188.47,-586 0,-191.9 57.12,-367.82 171.34,-527.74 114.23,-159.92 276.44,-286.72 486.62,-380.39 210.18,-93.67 450.07,-140.5 719.65,-140.5 415.8,0 751.64,105.1 1007.51,315.28 255.87,210.18 392.95,498.04 411.22,863.58l-623.69 0c-13.7,-196.48 -92.52,-354.12 -236.45,-472.92 -143.93,-118.8 -336.97,-178.2 -579.14,-178.2 -223.89,0 -402.09,47.98 -534.59,143.93 -132.51,95.95 -198.77,221.6 -198.77,376.96 0,123.37 39.98,225.03 119.94,305 79.96,79.96 180.48,143.92 301.57,191.9 121.08,47.97 289,101.67 503.76,161.07 269.59,73.1 488.91,145.07 657.96,215.89 169.07,70.82 314.14,177.05 435.22,318.7 121.08,141.65 183.91,326.7 188.48,555.16 0,205.62 -57.12,390.67 -171.35,555.16 -114.23,164.49 -275.29,293.57 -483.19,387.24 -207.9,93.67 -446.64,140.5 -716.22,140.5z"/>
   <polygon class="fil1" points="29.88,11205.69 17468.28,11205.69 20134.55,7015.71 20134.55,11205.69 20134.55,11585.95 20134.55,11668.41 29.88,11668.41 "/>
   <path class="fil2" d="M6657.93 8430.69l-903.68 632.76c-70.58,49.42 -168.44,32.16 -217.86,-38.41l-629.32 -898.78c-33.55,-47.92 -86.59,-72.03 -144.75,-65.81 -258.71,27.65 -514.29,119.17 -742.51,278.98 -97.89,68.55 -185.62,146.18 -263.04,230.85 -222.54,211.36 -409.02,463.99 -613.56,699.91 -412.26,475.48 -930.76,973.38 -1548.77,1210.5 -314.07,120.5 -547.15,139.49 -807.51,119.32 -257.14,-19.9 -573.35,-190.1 -704.54,-458.42 -131.39,-268.76 -83.26,-594.37 -9.77,-788.61 331.97,-877.39 1372.36,-1375.15 2186.16,-1664.9 230.62,-82.13 458.21,-161.31 668.57,-265.14 113.22,-44.91 223.06,-103.54 327.19,-176.45 228.21,-159.8 401.63,-368.64 516.12,-602.31 25.73,-52.52 21.21,-110.62 -12.34,-158.52l-622.74 -889.37c-49.38,-70.52 -32.18,-168.31 38.3,-217.76l480.32 -337 423.59 -295.83c24.18,-16.88 57.65,-10.96 74.56,13.19l2518.77 3597.18c16.93,24.17 11.03,57.69 -13.15,74.61zm-5028.3 774.64c158.8,226.81 103.68,539.41 -123.12,698.22 -226.81,158.81 -539.41,103.69 -698.22,-123.12 -158.8,-226.8 -103.68,-539.41 123.12,-698.21 226.8,-158.81 539.41,-103.69 698.22,123.11z"/>
   <path class="fil3" d="M10968.35 3231.81c2535.33,1910.48 5070.65,3821.01 7605.98,5731.53l559.99 -863.49c-2721.98,-2051.17 -5443.98,-4102.32 -8165.95,-6153.48 -75.17,-56.64 -174.98,-56.66 -250.15,-0.02 -1778.73,1340.35 -3557.43,2680.72 -5336.15,4021.09l592.69 838.82 4743.45 -3574.45c75.16,-56.64 174.98,-56.64 250.14,0z"/>
   <path class="fil3" d="M10937.44 1563.12c2784.56,2098.31 5569.11,4196.62 8353.69,6294.95l666.99 -1028.5c-3006.89,-2265.87 -6013.78,-4531.73 -9020.68,-6797.58 -56.59,-42.63 -131.7,-42.63 -188.29,0 -2079.66,1567.13 -4159.34,3134.28 -6239.02,4701.43l341.62 483.49 364.36 515.66c1844.35,-1389.83 3688.71,-2779.61 5533.04,-4169.44 56.59,-42.64 131.7,-42.64 188.29,0z"/>
   <path class="fil3" d="M18395.15 9239.66l-7457.73 -5619.8c-56.58,-42.64 -131.7,-42.64 -188.28,0l-4584.73 3454.83 640.13 905.96 3944.61 -2972.48c56.59,-42.64 131.7,-42.64 188.29,0l6852.94 5164.07 604.77 -932.56z"/>
   <g>
    <rect class="fil1" x="9542.3" y="7452.13" width="1028.36" height="1028.36"/>
    <rect class="fil1" x="11033.43" y="7452.13" width="1028.36" height="1028.36"/>
    <rect class="fil1" x="9542.3" y="8840.43" width="1028.36" height="1028.36"/>
    <rect class="fil1" x="11033.43" y="8840.43" width="1028.36" height="1028.36"/>
   </g>
  </g>
 </g>
</svg>
